{"title":"The.Inbetweeners.2011.DVDRip.Xvid.AC3-SiNiSTER","uid":6892766,"size":1600514053,"categoryP":"video","categoryS":"movies","magnet":"?xt=urn:btih:e8639b60c87dfec8d3d41c01ca106567e1612821&amp;dn=The.Inbetweeners.2011.DVDRip.Xvid.AC3-SiNiSTER&amp;tr=udp%3A%2F%2Ftracker.openbittorrent.com%3A80&amp;tr=udp%3A%2F%2Fopen.demonii.com%3A1337&amp;tr=udp%3A%2F%2Ftracker.coppersurfer.tk%3A6969&amp;tr=udp%3A%2F%2Fexodus.desync.com%3A6969","seeders":0,"leechers":1,"uploader":"maximersk","files":9,"time":1324079315,"description":"The.Inbetweeners.2011.DVDRip.Xvid.AC3-SiNiSTER\n\n\n\n\n\n\n\n\nFormat : AVI\nFormat/Info : Audio Video Interleave\nFile size : 1.49 GiB\nDuration : 1h 32mn\nOverall bit rate : 2 294 Kbps\nWriting library : VirtualDub build 32839/release\n\nVideo\nID : 0\nFormat : MPEG-4 Visual\nFormat profile : Advanced Simple@L5\nFormat settings, BVOP : Yes\nFormat settings, QPel : Yes\nFormat settings, GMC : 3 warppoints\nFormat settings, Matrix : Default (H.263)\nMuxing mode : Packed bitstream\nCodec ID : XVID\nCodec ID/Hint : XviD\nDuration : 1h 32mn\nBit rate : 1 836 Kbps\nWidth : 720 pixels\nHeight : 384 pixels\nDisplay aspect ratio : 1.875\nFrame rate : 25.000 fps\nColor space : YUV\nChroma subsampling : 4:2:0\nBit depth : 8 bits\nScan type : Progressive\nBits/(Pixel*Frame) : 0.266\nStream size : 1.19 GiB (80%)\nWriting library : XviD 64\n\nAudio\nID : 1\nFormat : AC-3\nFormat/Info : Audio Coding 3\nMode extension : CM (complete main)\nCodec ID : 2000\nDuration : 1h 32mn\nBit rate mode : Constant\nBit rate : 448 Kbps\nChannel(s) : 6 channels\nChannel positions : Front: L C R, Side: L R, LFE\nSampling rate : 48.0 KHz\nBit depth : 16 bits\nVideo delay : 500ms\nStream size : 298 MiB (20%)\nAlignment : Split accross interleaves\nInterleave, duration : 40 ms (1.00 video frame)\n\n\nVideo Source: DVDR Legend-Rg.....thanks\nAudio Source: DVDR Legend-Rg.....thanks\n\n\nGreets:\nDarkScene,HDScene,Noir,CrEwSaDe,blackjesus,ViSiON,HDLiTE,BTVRG,Twentyforty,UnKnOwN,\nFLAWL3SS,Rx,Relizlab,MiSTERE,ILLUMiNATI,SAFCuk009,HiVE-CM8..... and everybody else we \nrespect.. u know who u are\n\n-------------------------------------------------------------------------------\nPost Information\n-------------------------------------------------------------------------------\nEncoded by...........: SiNiSTER\n\nHave sumthing to offer..looking for suppliers... cammers,cams,screeners, audio\nsupplier.. and any pre retail DVD/BR any RC...if u can provide any email us at\n&lt;a class=&quot;__cf_email__&quot; href=&quot;/cdn-cgi/l/email-protection&quot; data-cfemail=&quot;285b4146415b5c4d5a68405d5b404549414406454d&quot;&gt;[email&amp;#160;protected]&lt;/a&gt;&lt;script cf-hash='f9e31' type=&quot;text/javascript&quot;&gt;\n/* &lt;![CDATA[ */!function(){try{var t=&quot;currentScript&quot;in document?document.currentScript:function(){for(var t=document.getElementsByTagName(&quot;script&quot;),e=t.length;e--;)if(t[e].getAttribute(&quot;cf-hash&quot;))return t[e]}();if(t&amp;&amp;t.previousSibling){var e,r,n,i,c=t.previousSibling,a=c.getAttribute(&quot;data-cfemail&quot;);if(a){for(e=&quot;&quot;,r=parseInt(a.substr(0,2),16),n=2;a.length-n;n+=2)i=parseInt(a.substr(n,2),16)^r,e+=String.fromCharCode(i);e=document.createTextNode(e),c.parentNode.replaceChild(e,c)}}}catch(u){}}();/* ]]&gt; */&lt;/script&gt;\n&lt;a class=&quot;__cf_email__&quot; href=&quot;/cdn-cgi/l/email-protection&quot; data-cfemail=&quot;94b9b9b9b9b9b9b9b9b9b9b9b9b9b9b9b9b9b9b9b9b9b9b9b9b9b9b9b9b9b9b9b9b9b9b9b9b9b9b9b9b9b9b9b9b9b9b9b9b9b9b9b9b9b9b9b9b9b9b9b9b9b9b9b9b9&quot;&gt;[email&amp;#160;protected]&lt;/a&gt;&lt;script cf-hash='f9e31' type=&quot;text/javascript&quot;&gt;\n/* &lt;![CDATA[ */!function(){try{var t=&quot;currentScript&quot;in document?document.currentScript:function(){for(var t=document.getElementsByTagName(&quot;script&quot;),e=t.length;e--;)if(t[e].getAttribute(&quot;cf-hash&quot;))return t[e]}();if(t&amp;&amp;t.previousSibling){var e,r,n,i,c=t.previousSibling,a=c.getAttribute(&quot;data-cfemail&quot;);if(a){for(e=&quot;&quot;,r=parseInt(a.substr(0,2),16),n=2;a.length-n;n+=2)i=parseInt(a.substr(n,2),16)^r,e+=String.fromCharCode(i);e=document.createTextNode(e),c.parentNode.replaceChild(e,c)}}}catch(u){}}();/* ]]&gt; */&lt;/script&gt;--------------\nRelease Notes\n-------------------------------------------------------------------------------\n\n\nsource was nice.. made a script to crop, resize and denoise. then dropped it into\nvdub and deinterlaced, adjusted brightness,levels and contrast then sharpened.. \nthen just muxed the AC3 back to my encode....enjoy it is in sync.. \n","torrent":{"xt":"urn:btih:e8639b60c87dfec8d3d41c01ca106567e1612821","amp;dn":"The.Inbetweeners.2011.DVDRip.Xvid.AC3-SiNiSTER","amp;tr":["udp%3A%2F%2Ftracker.openbittorrent.com%3A80","udp%3A%2F%2Fopen.demonii.com%3A1337","udp%3A%2F%2Ftracker.coppersurfer.tk%3A6969","udp%3A%2F%2Fexodus.desync.com%3A6969"],"infoHash":"e8639b60c87dfec8d3d41c01ca106567e1612821","infoHashBuffer":{"type":"Buffer","data":[232,99,155,96,200,125,254,200,211,212,28,1,202,16,101,103,225,97,40,33]},"announce":[],"urlList":[]}}